HIERARCHY
ROOT Hips
{
	OFFSET -0.001795 -0.223333 0.028219
	CHANNELS 6 Xposition Yposition Zposition Zrotation Yrotation Xrotation 
	JOINT LeftUpLeg
	{
		OFFSET 0.069520 -0.091406 -0.006815
		CHANNELS 3 Zrotation Yrotation Xrotation
		JOINT LeftLeg
		{
			OFFSET 0.034277 -0.375199 -0.004496
			CHANNELS 3 Zrotation Yrotation Xrotation
			JOINT LeftFoot
			{
				OFFSET -0.013596 -0.397961 -0.043693
				CHANNELS 3 Zrotation Yrotation Xrotation
				JOINT LeftToe
				{
					OFFSET 0.026358 -0.055791 0.119288
					CHANNELS 3 Zrotation Yrotation Xrotation
					End Site
					{
						OFFSET 0.000000 0.000000 0.000000
					}
				}
			}
		}
	}
	JOINT RightUpLeg
	{
		OFFSET -0.067670 -0.090522 -0.004320
		CHANNELS 3 Zrotation Yrotation Xrotation
		JOINT RightLeg
		{
			OFFSET -0.038290 -0.382569 -0.008850
			CHANNELS 3 Zrotation Yrotation Xrotation
			JOINT RightFoot
			{
				OFFSET 0.015774 -0.398415 -0.042312
				CHANNELS 3 Zrotation Yrotation Xrotation
				JOINT RightToe
				{
					OFFSET -0.025372 -0.048144 0.123348
					CHANNELS 3 Zrotation Yrotation Xrotation
					End Site
					{
						OFFSET 0.000000 0.000000 0.000000
					}
				}
			}
		}
	}
	JOINT Spine
	{
		OFFSET -0.002533 0.108963 -0.026696
		CHANNELS 3 Zrotation Yrotation Xrotation
		JOINT Spine1
		{
			OFFSET 0.005487 0.135180 0.001092
			CHANNELS 3 Zrotation Yrotation Xrotation
			JOINT Spine2
			{
				OFFSET 0.001457 0.052922 0.025425
				CHANNELS 3 Zrotation Yrotation Xrotation
				JOINT Neck
				{
					OFFSET -0.002778 0.213870 -0.042857
					CHANNELS 3 Zrotation Yrotation Xrotation
					JOINT Head
					{
						OFFSET 0.005152 0.064970 0.051349
						CHANNELS 3 Zrotation Yrotation Xrotation
						End Site
						{
							OFFSET 0.000000 0.000000 0.000000
						}
					}
				}
				JOINT LeftShoulder
				{
					OFFSET 0.078845 0.121749 -0.034090
					CHANNELS 3 Zrotation Yrotation Xrotation
					JOINT LeftArm
					{
						OFFSET 0.090977 0.030469 -0.008868
						CHANNELS 3 Zrotation Yrotation Xrotation
						JOINT LeftForeArm
						{
							OFFSET 0.259612 -0.012772 -0.027456
							CHANNELS 3 Zrotation Yrotation Xrotation
							JOINT LeftHand
							{
								OFFSET 0.249234 0.008986 -0.001171
								CHANNELS 3 Zrotation Yrotation Xrotation
								End Site
								{
									OFFSET 0.000000 0.000000 0.000000
								}
							}
						}
					}
				}
				JOINT RightShoulder
				{
					OFFSET -0.081759 0.118833 -0.038615
					CHANNELS 3 Zrotation Yrotation Xrotation
					JOINT RightArm
					{
						OFFSET -0.096012 0.032551 -0.009143
						CHANNELS 3 Zrotation Yrotation Xrotation
						JOINT RightForeArm
						{
							OFFSET -0.253742 -0.013329 -0.021401
							CHANNELS 3 Zrotation Yrotation Xrotation
							JOINT RightHand
							{
								OFFSET -0.255298 0.007772 -0.005559
								CHANNELS 3 Zrotation Yrotation Xrotation
								End Site
								{
									OFFSET 0.000000 0.000000 0.000000
								}
							}
						}
					}
				}
			}
		}
	}
}
MOTION
Frames: 10
Frame Time: 0.050000
0.000000 0.950421 0.000000 -0.906876 1.039679 3.331333 4.119246 -0.028620 1.175336 -2.807386 0.342326 -4.957710 2.940666 9.158683 10.536913 0.000000 0.000000 0.000000 -2.485161 0.125936 -0.672148 1.804479 -0.176340 0.735324 -3.745552 -11.435550 9.205547 0.000000 0.000000 0.000000 -0.948970 -0.019768 1.143129 3.342664 -0.112324 -25.198297 -1.086823 -0.352811 29.472394 0.583667 1.269824 -25.997250 0.000000 0.000000 0.000000 -17.553551 8.258629 -5.433622 -48.259610 2.801789 -9.008752 -29.036065 -32.517701 10.594853 0.000000 0.000000 0.000000 11.145224 -3.000479 -1.855068 52.374889 -2.347034 -8.503259 24.265606 37.366119 10.048165 0.000000 0.000000 0.000000 
0.000039 0.949764 -0.000127 -1.060880 0.309822 3.784570 4.377013 -0.018889 1.477259 -2.846383 0.355116 -5.605532 3.352002 9.559439 9.586887 0.000000 0.000000 0.000000 -2.442125 0.169714 -1.162378 1.778863 -0.166414 0.884330 -3.827652 -11.629005 9.041622 0.000000 0.000000 0.000000 -1.087503 -0.000500 0.718279 3.513481 -0.133438 -25.686945 -0.890574 -0.516381 29.758684 -0.082178 1.575431 -26.417615 0.000000 0.000000 0.000000 -16.689512 9.537029 -5.839611 -48.980045 2.708911 -9.153786 -29.466471 -32.664092 10.944381 0.000000 0.000000 0.000000 9.731293 -3.130785 -1.872462 53.539888 -3.400005 -9.172416 25.101376 38.835276 10.777773 0.000000 0.000000 0.000000 
-0.000006 0.949680 -0.000408 -0.635281 0.900633 3.685275 4.338084 -0.038811 1.152192 -3.344018 0.374749 -4.448578 2.708522 8.380899 9.004587 0.000000 0.000000 0.000000 -2.791831 0.155689 -0.930018 1.832176 -0.172844 0.983186 -4.133659 -12.075212 8.383677 0.000000 0.000000 0.000000 -1.096431 0.014473 0.232204 3.119428 -0.058014 -25.265815 -1.207571 -0.960488 29.973804 -0.090965 1.569040 -26.584311 0.000000 0.000000 0.000000 -16.675762 8.692013 -5.353440 -48.555043 2.439941 -9.013866 -29.140013 -32.834363 10.892117 0.000000 0.000000 0.000000 10.361767 -2.643172 -1.708856 54.022635 -3.400725 -9.266937 22.847535 39.525850 10.160927 0.000000 0.000000 0.000000 
-0.000104 0.949519 -0.000700 -0.492655 0.949870 3.846895 4.373751 -0.052204 0.955843 -3.489445 0.382998 -4.198417 2.829160 8.606697 9.076244 0.000000 0.000000 0.000000 -3.026207 0.167569 -1.010859 2.138427 -0.206511 1.076232 -4.212796 -12.295156 8.785276 0.000000 0.000000 0.000000 -1.482819 0.027552 0.090755 3.615723 -0.124456 -26.112327 -1.428238 -1.234289 30.581118 -0.445322 1.721339 -26.436964 0.000000 0.000000 0.000000 -16.719562 9.739540 -5.870370 -48.362967 2.407247 -9.002941 -30.274501 -32.766548 11.301301 0.000000 0.000000 0.000000 9.347527 -2.992659 -1.805623 54.128409 -3.205102 -9.249363 23.695556 39.710177 10.519862 0.000000 0.000000 0.000000 
-0.000238 0.949742 -0.001018 -0.509763 0.998290 3.576531 4.310547 -0.032424 1.254252 -3.466777 0.381876 -4.377833 2.745076 8.465819 9.065836 0.000000 0.000000 0.000000 -2.940141 0.136880 -0.655830 1.850776 -0.179839 0.796388 -4.149812 -12.171589 8.807408 0.000000 0.000000 0.000000 -1.473907 0.018869 0.348308 3.971101 -0.230847 -25.633767 -1.690791 -1.043635 29.945047 -0.348961 1.661350 -25.430841 0.000000 0.000000 0.000000 -16.102171 9.402053 -5.642543 -48.662046 2.232221 -8.927842 -30.610865 -33.197006 11.537272 0.000000 0.000000 0.000000 9.117942 -3.064832 -1.803546 54.210301 -3.098551 -9.132389 23.293269 40.148306 10.516492 0.000000 0.000000 0.000000 
-0.000270 0.949896 -0.001298 -0.499773 1.047027 3.428948 4.316484 -0.023183 1.416931 -3.367757 0.375756 -4.573773 2.959294 8.923739 9.433337 0.000000 0.000000 0.000000 -3.009367 0.112016 -0.319117 1.722380 -0.172024 0.522490 -4.085651 -12.073760 9.009629 0.000000 0.000000 0.000000 -1.700698 0.022726 0.363976 4.193126 -0.266758 -25.877488 -1.633789 -1.285127 30.258443 -0.719795 1.838680 -25.338831 0.000000 0.000000 0.000000 -16.040410 9.757193 -5.778250 -48.684468 2.076648 -8.896449 -30.749161 -33.337516 11.673847 0.000000 0.000000 0.000000 9.019120 -2.971136 -1.772862 54.075245 -2.881427 -9.054227 22.364879 40.464155 10.232426 0.000000 0.000000 0.000000 
-0.000241 0.949740 -0.001542 -0.435518 1.054533 3.366413 4.247262 -0.012944 1.552997 -3.441496 0.381629 -4.897389 3.031021 9.141519 9.836928 0.000000 0.000000 0.000000 -2.992652 0.102592 -0.205652 1.602642 -0.159508 0.489412 -4.043299 -11.975730 8.928246 0.000000 0.000000 0.000000 -1.765535 0.019755 0.523510 4.208944 -0.271952 -25.849825 -1.624182 -1.293329 30.191434 -0.578669 1.755087 -25.368328 0.000000 0.000000 0.000000 -15.996395 9.571263 -5.669344 -49.016898 2.051383 -8.944609 -30.685929 -33.731022 11.812344 0.000000 0.000000 0.000000 9.232633 -2.896414 -1.758572 54.054410 -2.669752 -8.958595 21.201522 40.644187 9.846904 0.000000 0.000000 0.000000 
-0.000145 0.949497 -0.001771 -0.437814 1.096638 3.303957 4.242988 -0.010711 1.587741 -3.315533 0.374035 -5.034621 3.015996 9.132739 9.888710 0.000000 0.000000 0.000000 -2.939797 0.086637 -0.022560 1.511660 -0.150916 0.436037 -4.093373 -12.038195 8.723788 0.000000 0.000000 0.000000 -1.775313 0.018957 0.547624 4.234845 -0.275262 -25.891735 -1.634602 -1.199550 30.239390 -0.640469 1.804082 -25.176090 0.000000 0.000000 0.000000 -15.848014 9.423970 -5.590095 -49.344780 1.916380 -8.953034 -30.588338 -34.071972 11.897664 0.000000 0.000000 0.000000 9.563003 -2.904854 -1.774393 54.146616 -2.407505 -8.868244 19.811271 40.686087 9.365052 0.000000 0.000000 0.000000 
-0.000045 0.949371 -0.001997 -0.418315 1.125696 3.334327 4.194588 -0.007630 1.622813 -3.268869 0.371883 -5.253721 2.968335 9.071686 9.955916 0.000000 0.000000 0.000000 -3.008988 0.090373 -0.046097 1.444273 -0.144916 0.382302 -4.071570 -12.009857 8.829528 0.000000 0.000000 0.000000 -1.728896 0.018712 0.520976 4.129065 -0.247282 -25.957466 -1.543257 -1.099582 30.321617 -0.655767 1.829519 -25.089842 0.000000 0.000000 0.000000 -15.861726 9.507578 -5.658999 -49.840425 1.615526 -8.927633 -30.005076 -33.826868 11.609269 0.000000 0.000000 0.000000 9.759255 -3.157475 -1.891197 54.191062 -2.299661 -8.833510 18.622509 40.571212 8.915237 0.000000 0.000000 0.000000 
0.000009 0.949237 -0.002251 -0.420732 1.065853 3.370694 4.165852 -0.004860 1.648804 -3.342576 0.377300 -5.398896 2.941383 8.987415 9.813658 0.000000 0.000000 0.000000 -3.044595 0.093342 -0.064805 1.464584 -0.150118 0.261418 -4.124670 -12.124076 8.854188 0.000000 0.000000 0.000000 -1.625428 0.021268 0.342365 4.066510 -0.236385 -25.913389 -1.524764 -0.894220 30.394953 -0.610200 1.822240 -24.871670 0.000000 0.000000 0.000000 -15.816456 9.462497 -5.659536 -50.102405 1.363894 -8.875082 -29.624403 -33.982555 11.522209 0.000000 0.000000 0.000000 9.837928 -3.102007 -1.850919 54.226129 -2.136259 -8.768214 17.549003 40.531259 8.532296 0.000000 0.000000 0.000000 
